<svg width="3785" height="1000" viewBox="0 0 3785 1000" fill="none" xmlns="http://www.w3.org/2000/svg">
<path d="M169.811 336.478V666.667" stroke="#00092F" stroke-width="330.189" stroke-miterlimit="10"/>
<path d="M830.188 333.333V663.522" stroke="#00092F" stroke-width="330.189" stroke-miterlimit="10"/>
<path d="M169.811 665.094C169.807 686.776 174.075 708.246 182.37 728.278C190.665 748.31 202.826 766.511 218.157 781.843C233.488 797.174 251.69 809.335 271.722 817.63C291.754 825.925 313.224 830.193 334.906 830.189H665.094C708.88 830.189 750.872 812.795 781.834 781.833C812.795 750.872 830.189 708.88 830.189 665.094C830.18 621.311 812.784 579.324 781.824 548.364C750.865 517.405 708.877 500.008 665.094 500H500" stroke="url(#paint0_angular_3_268)" stroke-width="330.189" stroke-miterlimit="10"/>
<path d="M500 500H334.906C291.12 500 249.127 482.606 218.166 451.645C187.205 420.684 169.811 378.691 169.811 334.906C169.82 291.122 187.216 249.135 218.175 218.176C249.135 187.216 291.122 169.82 334.906 169.811H665.094C708.88 169.811 750.872 187.205 781.834 218.166C812.795 249.128 830.189 291.12 830.189 334.906" stroke="url(#paint1_angular_3_268)" stroke-width="330.189" stroke-miterlimit="10"/>
<path d="M1427.14 694.2C1410.41 614.003 1350.98 569 1259.24 569C1168.08 569 1098.27 613.426 1098.27 690.739C1098.27 771.513 1158.27 791.707 1214.82 806.131L1282.32 823.439C1323.86 833.825 1350.4 843.056 1350.4 878.251C1350.4 913.445 1316.94 933.639 1270.78 933.639C1220.01 933.639 1176.74 912.868 1170.39 854.595L1085 862.673C1096.54 952.101 1168.66 999.989 1269.63 999.989C1361.94 999.989 1438.68 960.756 1438.68 875.366C1438.68 781.898 1373.48 765.166 1310.01 749.012L1241.93 732.857C1209.05 724.779 1184.24 714.971 1184.24 686.123C1184.24 656.121 1212.51 634.196 1256.36 634.196C1304.24 634.196 1334.82 657.275 1342.9 700.547L1427.14 694.2ZM1686.47 893.252C1680.13 912.868 1663.39 940.562 1618.97 940.562C1576.85 940.562 1549.73 905.368 1548.58 855.172H1771.29C1778.79 740.934 1714.74 678.045 1618.97 678.045C1523.77 678.045 1466.07 740.357 1466.07 838.44C1466.07 935.37 1525.5 997.681 1618.97 997.681C1715.9 997.681 1756.28 942.87 1768.4 899.598L1686.47 893.252ZM1618.97 734.011C1662.24 734.011 1685.9 765.166 1688.78 802.669H1549.73C1552.62 765.166 1576.27 734.011 1618.97 734.011ZM1882.2 725.356V684.969H1804.89V990.181H1885.66V824.016C1885.66 769.782 1916.82 743.242 1950.28 743.242C1987.21 743.242 2007.98 761.128 2007.98 810.169V990.181H2088.18V789.399C2088.18 712.086 2039.71 678.045 1980.86 678.045C1937.59 678.045 1905.28 695.931 1884.51 725.356H1882.2ZM2273.78 927.869C2248.39 927.869 2238.01 924.984 2238.01 897.29V739.203H2301.47V684.969H2238.01V599.579H2157.23V684.969H2108.77V739.203H2157.23V918.061C2157.23 978.065 2184.35 991.335 2246.66 991.335C2266.28 991.335 2291.66 991.335 2299.16 990.181V927.292C2292.24 927.869 2281.85 927.869 2273.78 927.869ZM2330.59 572.462V642.274H2411.36V572.462H2330.59ZM2330.59 684.969V990.181H2411.36V684.969H2330.59ZM2816.34 678.045C2767.3 678.045 2737.3 699.393 2712.49 728.241C2695.18 693.623 2661.14 678.045 2623.64 678.045C2582.67 678.045 2552.67 696.508 2531.9 725.933H2529.59V684.969H2452.28V990.758H2533.05V824.016C2533.05 769.782 2561.33 743.242 2592.48 743.242C2625.94 743.242 2644.98 761.128 2644.98 810.169V990.758H2725.76V824.016C2725.76 769.782 2754.03 743.242 2785.19 743.242C2818.65 743.242 2838.27 761.128 2838.27 810.169V990.758H2918.46V789.399C2918.46 712.086 2871.73 678.045 2816.34 678.045ZM3170 893.252C3163.66 912.868 3146.93 940.562 3102.5 940.562C3060.38 940.562 3033.26 905.368 3032.11 855.172H3254.82C3262.32 740.934 3198.27 678.045 3102.5 678.045C3007.3 678.045 2949.6 740.357 2949.6 838.44C2949.6 935.37 3009.03 997.681 3102.5 997.681C3199.43 997.681 3239.82 942.87 3251.93 899.598L3170 893.252ZM3102.5 734.011C3145.77 734.011 3169.43 765.166 3172.31 802.669H3033.26C3036.15 765.166 3059.8 734.011 3102.5 734.011ZM3365.74 725.356V684.969H3288.42V990.181H3369.2V824.016C3369.2 769.782 3400.35 743.242 3433.82 743.242C3470.74 743.242 3491.51 761.128 3491.51 810.169V990.181H3571.71V789.399C3571.71 712.086 3523.25 678.045 3464.4 678.045C3421.13 678.045 3388.82 695.931 3368.05 725.356H3365.74ZM3757.31 927.869C3731.92 927.869 3721.53 924.984 3721.53 897.29V739.203H3785V684.969H3721.53V599.579H3640.76V684.969H3592.3V739.203H3640.76V918.061C3640.76 978.065 3667.88 991.335 3730.19 991.335C3749.81 991.335 3775.19 991.335 3782.69 990.181V927.292C3775.77 927.869 3765.38 927.869 3757.31 927.869Z" fill="white"/>
<defs>
<radialGradient id="paint0_angular_3_268" cx="0" cy="0" r="1" gradientUnits="userSpaceOnUse" gradientTransform="translate(500 666.667) rotate(-90) scale(347.484 368.209)">
<stop stop-color="#002DFF"/>
<stop offset="0.25" stop-color="#002DFF"/>
<stop offset="0.75" stop-color="#00092F"/>
</radialGradient>
<radialGradient id="paint1_angular_3_268" cx="0" cy="0" r="1" gradientUnits="userSpaceOnUse" gradientTransform="translate(500 336.478) rotate(90) scale(327.044 357.881)">
<stop stop-color="#002DFF"/>
<stop offset="0.25" stop-color="#002DFF"/>
<stop offset="0.75" stop-color="#00092F"/>
</radialGradient>
</defs>
</svg>
